<?xml version="1.0" encoding="UTF-8"?>
<svg xmlns="http://www.w3.org/2000/svg" version="1.1" width="100" height="100" viewBox="0 0 100 100"><rect x="0" y="0" width="100" height="100" fill="#ffffff"/><g transform="scale(2.041)"><g transform="translate(0,0)"><path fill-rule="evenodd" d="M9 0L9 1L8 1L8 2L9 2L9 3L8 3L8 4L9 4L9 5L8 5L8 7L9 7L9 5L10 5L10 8L6 8L6 9L5 9L5 8L0 8L0 14L1 14L1 15L2 15L2 17L1 17L1 16L0 16L0 17L1 17L1 18L0 18L0 19L1 19L1 18L2 18L2 20L4 20L4 19L3 19L3 18L6 18L6 19L5 19L5 21L4 21L4 22L3 22L3 23L4 23L4 27L7 27L7 28L6 28L6 29L10 29L10 30L11 30L11 31L12 31L12 30L13 30L13 31L14 31L14 29L12 29L12 28L14 28L14 27L12 27L12 28L8 28L8 27L9 27L9 26L12 26L12 25L14 25L14 26L15 26L15 29L16 29L16 30L15 30L15 31L16 31L16 33L18 33L18 34L17 34L17 35L18 35L18 34L19 34L19 37L18 37L18 36L17 36L17 37L18 37L18 38L17 38L17 42L16 42L16 43L15 43L15 45L16 45L16 46L14 46L14 45L13 45L13 44L14 44L14 43L13 43L13 41L14 41L14 40L16 40L16 39L15 39L15 38L16 38L16 37L15 37L15 36L16 36L16 34L15 34L15 33L13 33L13 35L12 35L12 36L11 36L11 34L10 34L10 33L9 33L9 34L8 34L8 33L7 33L7 32L6 32L6 31L9 31L9 30L6 30L6 31L5 31L5 32L6 32L6 33L3 33L3 30L2 30L2 29L3 29L3 28L2 28L2 27L3 27L3 26L2 26L2 27L1 27L1 28L0 28L0 29L1 29L1 30L0 30L0 31L1 31L1 32L0 32L0 33L1 33L1 32L2 32L2 33L3 33L3 34L2 34L2 36L3 36L3 34L6 34L6 35L5 35L5 36L4 36L4 37L2 37L2 38L1 38L1 37L0 37L0 38L1 38L1 40L0 40L0 41L3 41L3 40L4 40L4 39L2 39L2 38L4 38L4 37L7 37L7 36L6 36L6 35L10 35L10 36L11 36L11 37L10 37L10 38L11 38L11 39L10 39L10 41L9 41L9 40L6 40L6 41L8 41L8 43L9 43L9 44L8 44L8 49L11 49L11 48L12 48L12 49L14 49L14 48L12 48L12 47L11 47L11 46L12 46L12 45L13 45L13 47L16 47L16 49L17 49L17 48L18 48L18 49L19 49L19 48L21 48L21 45L23 45L23 47L22 47L22 48L23 48L23 47L25 47L25 45L27 45L27 43L29 43L29 42L31 42L31 41L32 41L32 40L33 40L33 39L35 39L35 40L36 40L36 41L35 41L35 42L32 42L32 43L33 43L33 44L34 44L34 43L35 43L35 44L36 44L36 45L35 45L35 46L34 46L34 45L33 45L33 47L32 47L32 48L31 48L31 49L32 49L32 48L34 48L34 49L35 49L35 48L34 48L34 47L36 47L36 46L37 46L37 44L36 44L36 42L37 42L37 43L39 43L39 44L38 44L38 45L40 45L40 46L38 46L38 47L37 47L37 48L36 48L36 49L40 49L40 46L41 46L41 48L42 48L42 49L43 49L43 48L45 48L45 49L46 49L46 48L45 48L45 47L44 47L44 46L46 46L46 47L47 47L47 46L49 46L49 41L48 41L48 40L46 40L46 38L45 38L45 40L44 40L44 39L43 39L43 38L44 38L44 37L48 37L48 38L47 38L47 39L49 39L49 36L45 36L45 35L49 35L49 30L48 30L48 29L49 29L49 22L48 22L48 21L49 21L49 20L48 20L48 19L49 19L49 14L47 14L47 12L49 12L49 9L48 9L48 8L47 8L47 9L46 9L46 8L45 8L45 9L46 9L46 11L47 11L47 12L46 12L46 14L45 14L45 13L44 13L44 14L43 14L43 13L42 13L42 14L41 14L41 15L40 15L40 14L37 14L37 12L36 12L36 11L37 11L37 10L38 10L38 13L41 13L41 12L39 12L39 10L38 10L38 9L41 9L41 11L42 11L42 10L44 10L44 11L43 11L43 12L45 12L45 10L44 10L44 8L43 8L43 9L42 9L42 8L41 8L41 6L40 6L40 8L36 8L36 7L37 7L37 6L38 6L38 7L39 7L39 5L38 5L38 4L37 4L37 2L39 2L39 4L40 4L40 3L41 3L41 0L40 0L40 1L38 1L38 0L36 0L36 2L35 2L35 1L34 1L34 0L33 0L33 1L34 1L34 2L35 2L35 3L33 3L33 4L32 4L32 3L31 3L31 2L30 2L30 1L31 1L31 0L29 0L29 2L28 2L28 1L26 1L26 2L27 2L27 3L25 3L25 0L23 0L23 2L24 2L24 3L23 3L23 4L21 4L21 6L20 6L20 5L19 5L19 4L20 4L20 3L19 3L19 4L18 4L18 3L17 3L17 2L18 2L18 1L20 1L20 2L21 2L21 3L22 3L22 2L21 2L21 1L20 1L20 0L18 0L18 1L17 1L17 2L15 2L15 0L14 0L14 1L13 1L13 0L12 0L12 2L11 2L11 0ZM13 2L13 3L11 3L11 4L10 4L10 5L11 5L11 9L10 9L10 10L9 10L9 9L6 9L6 10L5 10L5 11L4 11L4 9L3 9L3 10L2 10L2 9L1 9L1 12L2 12L2 13L1 13L1 14L2 14L2 15L3 15L3 14L2 14L2 13L3 13L3 11L4 11L4 12L7 12L7 13L6 13L6 14L5 14L5 13L4 13L4 16L3 16L3 17L5 17L5 15L6 15L6 16L7 16L7 17L6 17L6 18L7 18L7 19L6 19L6 20L7 20L7 19L8 19L8 20L9 20L9 21L8 21L8 22L9 22L9 24L10 24L10 25L11 25L11 24L13 24L13 23L14 23L14 25L15 25L15 26L17 26L17 27L16 27L16 29L18 29L18 28L17 28L17 27L18 27L18 26L17 26L17 25L15 25L15 23L16 23L16 24L17 24L17 23L18 23L18 21L19 21L19 22L20 22L20 23L19 23L19 24L18 24L18 25L19 25L19 24L20 24L20 28L19 28L19 29L22 29L22 27L21 27L21 24L22 24L22 23L21 23L21 20L22 20L22 22L23 22L23 20L24 20L24 18L23 18L23 17L24 17L24 16L22 16L22 15L21 15L21 16L22 16L22 17L20 17L20 16L19 16L19 18L18 18L18 17L16 17L16 15L15 15L15 14L16 14L16 13L18 13L18 12L17 12L17 11L18 11L18 9L15 9L15 7L16 7L16 8L17 8L17 7L18 7L18 8L19 8L19 9L20 9L20 10L19 10L19 13L21 13L21 14L22 14L22 13L23 13L23 15L24 15L24 14L27 14L27 15L26 15L26 16L25 16L25 17L26 17L26 18L25 18L25 21L24 21L24 22L27 22L27 23L28 23L28 21L30 21L30 20L27 20L27 19L28 19L28 18L29 18L29 16L28 16L28 15L29 15L29 13L32 13L32 14L31 14L31 16L32 16L32 18L30 18L30 19L31 19L31 20L32 20L32 21L31 21L31 22L32 22L32 23L31 23L31 24L30 24L30 22L29 22L29 24L28 24L28 25L29 25L29 24L30 24L30 25L31 25L31 26L28 26L28 27L30 27L30 29L31 29L31 30L32 30L32 29L33 29L33 30L35 30L35 31L33 31L33 32L32 32L32 31L29 31L29 30L28 30L28 31L27 31L27 30L26 30L26 31L27 31L27 32L25 32L25 29L24 29L24 28L25 28L25 27L24 27L24 28L23 28L23 29L24 29L24 30L21 30L21 32L19 32L19 33L20 33L20 35L21 35L21 34L23 34L23 35L22 35L22 38L23 38L23 39L22 39L22 40L24 40L24 35L27 35L27 36L25 36L25 39L27 39L27 40L28 40L28 41L29 41L29 40L30 40L30 41L31 41L31 40L32 40L32 39L33 39L33 38L35 38L35 39L36 39L36 40L37 40L37 42L39 42L39 43L40 43L40 41L39 41L39 40L40 40L40 39L42 39L42 40L43 40L43 39L42 39L42 38L41 38L41 35L42 35L42 36L43 36L43 37L44 37L44 35L45 35L45 33L44 33L44 32L43 32L43 31L42 31L42 30L43 30L43 27L42 27L42 28L41 28L41 29L39 29L39 27L36 27L36 26L35 26L35 25L36 25L36 24L38 24L38 25L37 25L37 26L39 26L39 24L40 24L40 22L42 22L42 21L39 21L39 20L42 20L42 19L43 19L43 20L44 20L44 21L45 21L45 22L46 22L46 23L45 23L45 24L46 24L46 25L47 25L47 26L45 26L45 29L44 29L44 30L45 30L45 32L46 32L46 33L47 33L47 34L48 34L48 32L47 32L47 29L46 29L46 28L47 28L47 26L48 26L48 25L47 25L47 21L48 21L48 20L47 20L47 19L45 19L45 18L42 18L42 17L43 17L43 16L44 16L44 17L45 17L45 16L46 16L46 18L48 18L48 17L47 17L47 16L48 16L48 15L45 15L45 16L44 16L44 15L43 15L43 14L42 14L42 15L41 15L41 16L42 16L42 17L39 17L39 16L40 16L40 15L39 15L39 16L38 16L38 15L36 15L36 12L35 12L35 11L36 11L36 10L37 10L37 9L36 9L36 8L35 8L35 7L36 7L36 6L37 6L37 4L36 4L36 5L35 5L35 4L33 4L33 5L35 5L35 7L34 7L34 6L33 6L33 7L34 7L34 8L35 8L35 9L34 9L34 10L33 10L33 8L32 8L32 10L33 10L33 11L34 11L34 12L28 12L28 11L31 11L31 10L29 10L29 9L31 9L31 8L30 8L30 5L29 5L29 3L30 3L30 2L29 2L29 3L27 3L27 8L28 8L28 9L26 9L26 10L28 10L28 11L27 11L27 12L26 12L26 13L23 13L23 12L24 12L24 11L25 11L25 9L22 9L22 8L21 8L21 7L22 7L22 6L21 6L21 7L20 7L20 6L19 6L19 5L18 5L18 4L17 4L17 3L15 3L15 4L13 4L13 3L14 3L14 2ZM24 3L24 4L25 4L25 3ZM11 4L11 5L12 5L12 4ZM15 4L15 5L16 5L16 4ZM31 4L31 7L32 7L32 4ZM13 5L13 6L12 6L12 10L13 10L13 9L14 9L14 10L15 10L15 13L16 13L16 10L15 10L15 9L14 9L14 7L15 7L15 6L14 6L14 5ZM17 5L17 6L16 6L16 7L17 7L17 6L18 6L18 7L19 7L19 6L18 6L18 5ZM23 5L23 8L26 8L26 5ZM13 6L13 7L14 7L14 6ZM24 6L24 7L25 7L25 6ZM28 6L28 8L29 8L29 6ZM21 9L21 11L24 11L24 10L22 10L22 9ZM47 9L47 10L48 10L48 9ZM6 10L6 11L8 11L8 10ZM34 10L34 11L35 11L35 10ZM9 11L9 12L8 12L8 13L9 13L9 12L10 12L10 15L9 15L9 14L8 14L8 15L7 15L7 14L6 14L6 15L7 15L7 16L10 16L10 18L9 18L9 17L7 17L7 18L8 18L8 19L11 19L11 20L10 20L10 21L12 21L12 22L13 22L13 21L15 21L15 22L16 22L16 21L15 21L15 17L14 17L14 16L13 16L13 15L14 15L14 13L13 13L13 12L14 12L14 11ZM11 13L11 14L12 14L12 13ZM27 13L27 14L28 14L28 13ZM18 14L18 15L17 15L17 16L18 16L18 15L20 15L20 14ZM32 14L32 16L33 16L33 18L32 18L32 20L34 20L34 21L35 21L35 20L36 20L36 21L37 21L37 20L38 20L38 19L42 19L42 18L38 18L38 17L37 17L37 16L36 16L36 15L35 15L35 14ZM10 15L10 16L11 16L11 19L13 19L13 20L12 20L12 21L13 21L13 20L14 20L14 19L13 19L13 18L14 18L14 17L13 17L13 18L12 18L12 15ZM34 15L34 18L33 18L33 19L34 19L34 20L35 20L35 19L34 19L34 18L35 18L35 17L36 17L36 16L35 16L35 15ZM42 15L42 16L43 16L43 15ZM27 16L27 17L28 17L28 16ZM16 18L16 20L17 20L17 21L18 21L18 20L17 20L17 19L18 19L18 18ZM20 18L20 20L19 20L19 21L20 21L20 20L21 20L21 19L22 19L22 18ZM26 18L26 19L27 19L27 18ZM36 18L36 20L37 20L37 19L38 19L38 18ZM44 19L44 20L45 20L45 21L47 21L47 20L45 20L45 19ZM0 20L0 21L1 21L1 20ZM26 20L26 21L27 21L27 20ZM5 21L5 22L7 22L7 21ZM1 22L1 25L3 25L3 24L2 24L2 22ZM34 22L34 23L32 23L32 24L31 24L31 25L32 25L32 24L34 24L34 25L35 25L35 22ZM36 22L36 23L39 23L39 22ZM5 23L5 26L8 26L8 23ZM23 23L23 26L26 26L26 23ZM41 23L41 26L44 26L44 23ZM6 24L6 25L7 25L7 24ZM24 24L24 25L25 25L25 24ZM42 24L42 25L43 25L43 24ZM33 26L33 27L31 27L31 29L32 29L32 28L33 28L33 27L34 27L34 26ZM35 27L35 28L36 28L36 31L35 31L35 32L33 32L33 33L35 33L35 34L33 34L33 35L32 35L32 36L31 36L31 35L30 35L30 33L31 33L31 34L32 34L32 33L31 33L31 32L29 32L29 31L28 31L28 32L27 32L27 33L28 33L28 32L29 32L29 35L28 35L28 34L27 34L27 35L28 35L28 36L29 36L29 38L30 38L30 40L31 40L31 38L32 38L32 36L33 36L33 37L35 37L35 36L36 36L36 37L38 37L38 36L39 36L39 38L36 38L36 39L40 39L40 36L39 36L39 34L40 34L40 35L41 35L41 34L40 34L40 33L42 33L42 35L44 35L44 33L43 33L43 32L42 32L42 31L40 31L40 32L39 32L39 30L38 30L38 33L39 33L39 34L37 34L37 32L36 32L36 31L37 31L37 28L36 28L36 27ZM1 28L1 29L2 29L2 28ZM27 28L27 29L29 29L29 28ZM4 29L4 30L5 30L5 29ZM11 29L11 30L12 30L12 29ZM45 29L45 30L46 30L46 29ZM17 30L17 31L18 31L18 30ZM19 30L19 31L20 31L20 30ZM23 31L23 32L22 32L22 33L23 33L23 34L25 34L25 32L24 32L24 31ZM23 32L23 33L24 33L24 32ZM35 32L35 33L36 33L36 32ZM6 33L6 34L7 34L7 33ZM35 34L35 35L36 35L36 36L37 36L37 35L36 35L36 34ZM0 35L0 36L1 36L1 35ZM13 35L13 36L14 36L14 35ZM29 35L29 36L30 36L30 37L31 37L31 36L30 36L30 35ZM33 35L33 36L34 36L34 35ZM20 36L20 37L19 37L19 38L18 38L18 40L19 40L19 41L20 41L20 42L21 42L21 43L22 43L22 42L21 42L21 36ZM8 37L8 38L9 38L9 37ZM11 37L11 38L12 38L12 37ZM13 37L13 40L12 40L12 39L11 39L11 42L12 42L12 41L13 41L13 40L14 40L14 38L15 38L15 37ZM26 37L26 38L27 38L27 39L28 39L28 40L29 40L29 39L28 39L28 37ZM5 38L5 39L7 39L7 38ZM19 38L19 39L20 39L20 38ZM45 40L45 41L46 41L46 42L45 42L45 44L47 44L47 45L48 45L48 43L47 43L47 41L46 41L46 40ZM23 41L23 44L26 44L26 41ZM41 41L41 44L44 44L44 41ZM9 42L9 43L10 43L10 44L11 44L11 45L10 45L10 46L9 46L9 47L10 47L10 48L11 48L11 47L10 47L10 46L11 46L11 45L12 45L12 43L10 43L10 42ZM17 42L17 43L18 43L18 42ZM24 42L24 43L25 43L25 42ZM42 42L42 43L43 43L43 42ZM30 43L30 44L29 44L29 45L28 45L28 46L26 46L26 47L28 47L28 48L25 48L25 49L28 49L28 48L30 48L30 46L31 46L31 45L32 45L32 44L31 44L31 43ZM16 44L16 45L18 45L18 44ZM19 44L19 45L21 45L21 44ZM29 45L29 46L30 46L30 45ZM41 45L41 46L42 46L42 47L43 47L43 46L44 46L44 45ZM17 46L17 47L18 47L18 48L19 48L19 47L20 47L20 46L19 46L19 47L18 47L18 46ZM38 47L38 48L39 48L39 47ZM48 47L48 48L47 48L47 49L49 49L49 47ZM0 0L0 7L7 7L7 0ZM1 1L1 6L6 6L6 1ZM2 2L2 5L5 5L5 2ZM42 0L42 7L49 7L49 0ZM43 1L43 6L48 6L48 1ZM44 2L44 5L47 5L47 2ZM0 42L0 49L7 49L7 42ZM1 43L1 48L6 48L6 43ZM2 44L2 47L5 47L5 44Z" fill="#000000"/></g></g></svg>
